# xmcd CD database file
#
# Track frame offsets:
#	182
#	25402
#	42725
#	66365
#	82627
#	101587
#	129310
#	147475
#	164242
#
# Disc length: 2473 seconds
#
# Revision: 3
# Processed by: cddbd v1.4PL0 Copyright (c) Steve Scherf et al.
# Submitted via: CDex 1.50
#
DISCID=8009a709
DTITLE=Bobby Womack - The Poet II 
DYEAR=1984
DGENRE=Soul
TTITLE0=Love Has Finally Come At Last
TTITLE1=It Takes A Lot Of Strength To Say Goodbye
TTITLE2=Through The Eyes Of A Child
TTITLE3=Surprise, Surprise
TTITLE4=Tryin' To Get Over You
TTITLE5=Tell Me Why
TTITLE6=Who's Foolin' Who
TTITLE7=I Wish I Had Someone To Go Home To
TTITLE8=American Dream
EXTD=YEAR: 1984
EXTT0=
EXTT1=
EXTT2=
EXTT3=
EXTT4=
EXTT5=
EXTT6=
EXTT7=
EXTT8=
PLAYORDER=
